<svg xmlns="http://www.w3.org/2000/svg" width="511.0802" height="511.1783" viewBox="0 0 511.0802 511.1783"><defs><style>.cls-1{fill:#222;}</style></defs><g id="Layer_2" data-name="Layer 2"><g id="Layer_1-2" data-name="Layer 1"><g id="Y5Yl3j"><path class="cls-1" d="M250.5107,0h9.98c3.0405,1.6244,6.242,3.007,9.0981,4.9084q114.9447,76.52,229.8393,153.1141c7.8295,5.2132,11.6541,12.1153,11.6229,21.6994q-.2457,75.3477.0283,150.6964c.0481,10.3923-4.0749,17.5345-12.5906,23.1939q-113.7518,75.599-227.33,151.4587c-12.1768,8.1167-19.073,8.1307-31.0954.1162Q127.8456,430.3785,15.5778,355.6446C8.7673,351.1206,2.8389,346.2327,0,338.3392V172.6628c2.8416-7.8771,8.7469-12.77,15.5529-17.29Q124.2384,83.1951,232.7442,10.7465C238.5005,6.915,244.5809,3.5707,250.5107,0Zm26.92,63.0283v6.127c0,30.4268.0672,60.8539-.09,91.28-.0184,3.5775,1.0385,5.6169,4.0305,7.6q43.8175,29.0424,87.3892,58.4541c2.96,1.9989,4.9175,1.9839,7.84.0065,22.9762-15.5479,46.0743-30.9157,69.1258-46.3525,1.0384-.6954,1.99-1.5211,3.4177-2.6227C391.9245,139.3683,335.1843,101.536,277.4312,63.0283Zm0,384.9479L449.1038,333.5013c-.9592-.8347-1.2965-1.1986-1.6977-1.4673-24.0128-16.0868-48.0619-32.12-72.0035-48.3117-2.5691-1.7375-4.0941-.792-6.1328.5739q-44.2919,29.6763-88.6788,59.2106a6.3009,6.3009,0,0,0-3.2241,6.0148c.1261,18.1216.0643,36.2445.0643,54.367ZM62.0338,177.4252a19.4857,19.4857,0,0,0,1.6921,1.5966c23.9987,16.076,48.0474,32.0784,71.9543,48.29,2.9154,1.9769,4.529.5012,6.5638-.8608q43.88-29.3716,87.8015-58.6819a7.1027,7.1027,0,0,0,3.6015-6.8257c-.127-30.9107-.0724-61.822-.0892-92.7331-.0008-1.39-.1891-2.78-.3426-4.8951ZM61.7032,333.36,233.2889,447.7316c.1436-1.6286.2694-2.3914.27-3.1542.0109-31.9078.0645-63.816-.13-95.7227-.011-1.8055-1.65-4.2274-3.2455-5.304C200.7273,323.6767,171.1392,304,141.665,284.1533c-2.4721-1.6646-4.0674-1.6906-6.5373-.0153-16.4868,11.1826-33.1046,22.1719-49.6672,33.243C77.7765,322.5173,70.121,327.6962,61.7032,333.36Zm116.5507-78.01c1.06.8717,1.5217,1.3228,2.0494,1.6758,24.1494,16.155,48.34,32.2485,72.4061,48.527,2.5319,1.7126,4.0535,1.0454,6.1326-.351q35.3585-23.749,70.7728-47.415a39.7431,39.7431,0,0,0,3.0538-2.5443c-21.8625-14.63-43.2357-28.9587-64.6424-43.2368-4.1212-2.7488-8.3823-7.3773-12.5635-7.36-4.1948.017-8.4191,4.6841-12.5463,7.4393C221.5261,226.3646,200.1627,240.6849,178.2539,255.35ZM44.0791,292.0685l54.6628-36.5769-54.6628-36.54Zm422.753-73.0341-54.4891,36.48,54.4891,36.4374Z"/></g></g></g></svg>