<svg xmlns="http://www.w3.org/2000/svg" width="159.4171" height="168.4918" viewBox="0 0 159.4171 168.4918"><g id="Layer_2" data-name="Layer 2"><g id="Layer_1-2" data-name="Layer 1"><g id="_6bG0Tb" data-name="6bG0Tb"><path d="M79.1894,168.48q-26.7387,0-53.4773-.0035C9.5274,168.4613.0779,158.9958.0138,142.7344c-.0315-7.9964.0017-15.9931-.0052-23.99-.0028-3.2205.3707-6.291,4.588-6.2208,4.0712.0677,4.6633,3.07,4.6719,6.2938.0226,8.4963-.0152,16.9928.0167,25.4891.0322,8.5567,5.0039,14.0061,13.5447,14.8541,1.4868.1476,2.9953.1015,4.4938.1017q52.2278.0074,104.4555.0008c13.1035-.0033,18.202-5.08,18.2283-18.0932.0162-7.9962-.1929-16.0044.2334-23.9787.0872-1.6322,2.5545-3.1373,3.9247-4.701,1.6709,1.4653,4.7349,2.882,4.7881,4.4039.36,10.3076.9191,20.7286-.1956,30.9372-1.411,12.9213-11.3378,20.6033-24.5922,20.6364C115.8405,168.5137,97.5149,168.48,79.1894,168.48Z"/><path d="M85.4207,104.82q10.7773-10.9567,21.5587-21.9093c2.222-2.252,4.2264-4.8824,6.8437-6.5182,1.5468-.9667,4.0993-.3242,6.2-.4054.0255,2.24.179,4.49-.0032,6.7124-.053.6464-1.0522,1.2275-1.64,1.8159Q101.4227,101.4766,84.45,118.4217c-4.2952,4.2724-5.6117,4.2615-9.8752.0135q-17.1663-17.104-34.2838-34.257c-2.4-2.3927-4.62-4.934-1.3567-8.0083,3.1776-2.9938,5.71-.76,8.0835,1.6236q12.1626,12.2125,24.39,24.3607c.8983.8946,1.8851,1.7,3.6773,3.3052V99.2529q0-45.2184.0015-90.4367c0-1.4987-.4842-3.2737.1494-4.432.974-1.7806,2.56-4.09,4.1943-4.3694,1.2825-.2191,3.4519,2.042,4.4372,3.6772.751,1.2463.3175,3.2391.3181,4.9q.0163,47.7059.008,95.4117Z"/></g></g></g></svg>