<svg xmlns="http://www.w3.org/2000/svg" width="438.3214" height="438.5115" viewBox="0 0 438.3214 438.5115"><defs><style>.cls-1{fill:#222;}</style></defs><g id="Layer_2" data-name="Layer 2"><g id="Layer_1-2" data-name="Layer 1"><g id="_7K9HPO" data-name="7K9HPO"><path class="cls-1" d="M91.8405,395.8166C128.68,330.28,181.9992,285.2406,256.3,260.2405c7.0751,34.6916,14.5618,67.508,20.2267,100.6359,3.4076,19.9276,4.2407,40.3236,5.539,60.5534.1953,3.0429-2.8257,8.5368-5.3181,9.18-65.69,16.9511-126.831,6.7557-182.9443-31.81C93.2723,398.4349,93.027,397.6544,91.8405,395.8166Z"/><path class="cls-1" d="M0,220.5027c77.571,3.74,152.0255-6.8756,225.5819-32.6831,5.5,12.9092,10.8525,25.4725,16.5481,38.8408C164.5573,253.8621,105.1968,301.8187,63.1663,373.285,21.8431,330.1559,1.1807,280.0576,0,220.5027Z"/><path class="cls-1" d="M2.67,184.4249C16.1842,114.1988,52.8576,62.4979,113.8992,26.7416a602.2372,602.2372,0,0,1,94.8131,128.6239C141.9528,178.6556,74.1966,187.5963,2.67,184.4249Z"/><path class="cls-1" d="M244.0387,141.9207c-15.1176-23.3162-28.6834-45.931-43.96-67.3243C184.7951,53.1928,167.8013,33.01,151.6271,12.3817,210.1825-12.9761,310.7606-1.0361,372.2928,63.5833A529.761,529.761,0,0,1,244.0387,141.9207Z"/><path class="cls-1" d="M321.3778,412.3963C311.78,358.93,302.21,305.6134,292.5628,251.8734c28.0437-10.256,103.3256-5.3767,139.9874,10.0906C434.7567,308.9119,371.3313,393.57,321.3778,412.3963Z"/><path class="cls-1" d="M397.2824,91.9382c27.7415,38.7673,41.6254,82.42,41.02,132.8409C384.9261,209.4137,331.948,205.87,277.36,217.328c-5.9118-13.9805-11.7726-27.8407-17.5252-41.4446,23.9328-12.9464,47.8774-24.6668,70.5317-38.5C353.0647,123.5229,374.475,107.5533,397.2824,91.9382Z"/></g></g></g></svg>