<svg xmlns="http://www.w3.org/2000/svg" width="124.9588" height="124.9823" viewBox="0 0 124.9588 124.9823"><defs><style>.cls-1{fill:#fff;}</style></defs><g id="Layer_2" data-name="Layer 2"><g id="Layer_1-2" data-name="Layer 1"><g id="lgkNhd"><path class="cls-1" d="M52.6766,124.9444c11.1089,0,22.219.1009,33.3264-.027,12.3023-.1415,20.0573-8.08,20.1038-20.4q.0628-16.6632.0025-33.3267c-.013-5.9247-2.1488-8.7016-6.516-8.6138-4.1554.0835-6.199,2.7892-6.214,8.402-.0291,10.9431.0086,21.8863-.0163,32.8293-.0145,6.3907-1.9634,8.478-8.1484,8.49q-32.0829.0609-64.166.0015c-6.1235-.01-8.3651-2.266-8.3746-8.4031q-.05-32.0832.0021-64.1665c.0109-6.0273,2.0792-8.0913,8.0037-8.1131,10.943-.04,21.8862,0,32.8293-.0176,6.0286-.01,8.8152-1.9973,8.8881-6.26.0737-4.3065-2.7662-6.4613-8.6609-6.4738q-16.1659-.0342-32.3319-.0033c-13.67.02-21.3284,7.545-21.3625,21.143q-.08,32.083.0035,64.1664c.038,12.9477,7.8089,20.6754,20.7967,20.7616C31.4532,125.003,42.0651,124.9469,52.6766,124.9444Zm49.27-112.17.841,1.4728a43.606,43.606,0,0,0-4.298,3.3542Q73.127,42.8674,47.853,68.2224c-1.2753,1.2785-3.1006,2.6392-3.34,4.1694-.3393,2.174-.2111,5.3783,1.1268,6.6047,1.534,1.406,4.6677,1.6558,6.9938,1.3968,1.494-.1663,2.8741-2.0676,4.1532-3.3436q25.52-25.46,51-50.9613c1.21-1.2085,2.5065-2.33,4.4132-4.0933,0,7.4714-.0268,13.9141.0087,20.3564.0271,4.9233,2.45,7.9258,6.2575,7.8783,3.7865-.0473,6.289-3.0483,6.34-7.9887q.1792-17.4.15-34.8013c-.0049-4.3485-2.7751-7.4034-6.9709-7.4222Q99.84-.0637,81.6937.1953c-4.0172.0524-6.6161,2.2188-6.9,6.3411-.251,3.65,2.85,6.1818,7.3633,6.2223C88.7532,12.8178,95.35,12.7739,101.9461,12.7739Z"/><path d="M52.6766,124.9457c-10.6115.0012-21.2234.0573-31.8345-.0131C7.8543,124.8464.0834,117.1187.0454,104.171Q-.0488,72.088.0419,40.0046c.0341-13.598,7.6929-21.1227,21.3625-21.143q16.1658-.024,32.3319.0033c5.8947.0125,8.7346,2.1673,8.6609,6.4738-.0729,4.2632-2.8595,6.2506-8.8881,6.2605-10.9431.0181-21.8863-.0226-32.8293.0176-5.9245.0218-7.9928,2.0858-8.0037,8.1131q-.0576,32.0832-.0021,64.1665c.01,6.1371,2.2511,8.3928,8.3746,8.4031q32.0829.0545,64.166-.0015c6.185-.0118,8.1339-2.0991,8.1484-8.49.0249-10.943-.0128-21.8862.0163-32.8293.015-5.6128,2.0586-8.3185,6.214-8.402,4.3672-.0878,6.503,2.6891,6.516,8.6138q.0364,16.6633-.0025,33.3267c-.0465,12.32-7.8015,20.2585-20.1038,20.4C74.8956,125.0453,63.7855,124.9444,52.6766,124.9457Z"/><path d="M101.9461,12.7739c-6.5963,0-13.1929.0439-19.7886-.0152-4.5137-.04-7.6143-2.5722-7.3633-6.2223.2834-4.1223,2.8823-6.2887,6.9-6.3411Q99.8382-.041,117.9856.0176c4.1958.0188,6.966,3.0737,6.9709,7.4222q.02,17.4006-.15,34.8013c-.051,4.94-2.5535,7.9414-6.34,7.9887-3.8072.0475-6.23-2.955-6.2575-7.8783-.0355-6.4423-.0087-12.885-.0087-20.3564-1.9067,1.7633-3.2034,2.8848-4.4132,4.0933q-25.5035,25.4769-51,50.9613c-1.2791,1.276-2.6592,3.1773-4.1532,3.3436-2.3261.259-5.46.0092-6.9938-1.3968-1.3379-1.2264-1.4661-4.4307-1.1268-6.6047.2389-1.53,2.0642-2.8909,3.34-4.1694Q73.1359,42.8765,98.4891,17.6009a43.606,43.606,0,0,1,4.298-3.3542Z"/></g></g></g></svg>