<svg xmlns="http://www.w3.org/2000/svg" width="511.1233" height="498.7848" viewBox="0 0 511.1233 498.7848"><defs><style>.cls-1{fill:#222;}</style></defs><g id="Layer_2" data-name="Layer 2"><g id="Layer_1-2" data-name="Layer 1"><g id="xsdVj9"><path class="cls-1" d="M0,237.3457c.991-7.033,1.9493-14.0708,2.9784-21.0982C9.74,170.0756,28.5176,129.2028,57.9951,93.2625c34.2107-41.7111,77.594-69.76,129.4683-84.2587,31.345-8.761,63.372-10.8774,95.8209-7.4374,59.2677,6.2831,110.0123,30.7947,152.141,72.41,39.672,39.1886,64.2181,86.6724,72.5639,142.1019,7.0015,46.501,2.4374,91.8633-15.36,135.4483-17.1092,41.8993-43.79,76.9009-79.1806,105.1929-22.5479,18.0253-47.7505,31.1634-74.9245,40.6633-11.6785,4.0827-19.4639-1.2678-19.5455-13.7027q-.1983-30.1875-.0211-60.3774c.0862-19.868-.93-39.3628-16.8686-54.6562,10.4207-1.9256,20.2736-3.2156,29.8477-5.6172,26.2436-6.5833,49.7336-18.09,65.7046-40.9977,11.9527-17.1438,17.2619-36.8556,19.5063-57.3907,1.7193-15.7309,2.1013-31.4522-1.5824-47.0773a91.65,91.65,0,0,0-19.6582-39.2179c-2.73-3.19-3.4624-5.7131-2.0383-10.0544,6.727-20.5056,3.8529-40.66-3.7735-60.3532-.4676-1.2074-2.6924-2.2663-4.2119-2.4462-8.68-1.0278-16.9621,1.1775-24.6124,4.8343-12.9975,6.2127-25.61,13.2274-38.5032,19.6658-2.1435,1.07-5.1171,1.79-7.3282,1.2148a239.4972,239.4972,0,0,0-91.4738-5.5309c-9.1883,1.1746-18.2616,3.3711-27.3135,5.4261-3.456.7846-6.2062.6011-9.2721-1.4443a167.6984,167.6984,0,0,0-51.8988-23.4819c-.16-.0409-.311-.1231-.4722-.1594-11.5043-2.584-14.0969-1.0119-17.3061,10.0437-5.3648,18.4813-6.2214,36.8871.1657,55.357.4769,1.3788-.4,3.81-1.4652,5.0482-11.5372,13.4155-19.5723,28.6837-21.936,46.1813-4.9015,36.284-.3457,71.0083,20.8021,101.98,10.9786,16.0784,27.0972,26.093,45.0368,32.3887,13.0451,4.578,26.8992,6.8605,40.4108,10.09,2.3918.5717,4.8732.7689,6.638,1.0366-3.7524,6.865-7.6617,13.6825-11.2072,20.6841a20.4778,20.4778,0,0,0-2.2485,8.0888c-.2118,4.8555-2.8366,6.94-7.0779,8.1422-16.4459,4.66-32.7917,7.5744-48.5949-2.0914a53.7572,53.7572,0,0,1-18.3839-19.295c-7.49-12.8516-17.8785-22.3889-32.2266-26.6255-5.0239-1.4834-10.7308-1.1648-16.0793-.8578-3.5627.2045-4.9435,2.8522-2.3587,5.9747,2.3076,2.7877,4.5925,5.9729,7.6165,7.7233,13.236,7.6618,20.7562,19.8248,26.8722,33.0927,3.7534,8.1427,6.8884,16.4866,13.7925,22.7893,10.6648,9.7358,23.6441,13.4018,37.4584,14.0689,12.0484.5819,24.1586-.1167,36.7839-.2556a13.4568,13.4568,0,0,1,.3244,2.5557c.1717,13.9705.3971,27.9416.4066,41.9126.0079,11.5136-8.0881,17.3562-19.1151,13.6039-38.2336-13.01-71.8207-33.5707-99.9223-62.6892-26.7688-27.7374-47.2-59.498-59.8076-96.099A255.1853,255.1853,0,0,1,1.0327,279.6115C.8308,277.486.3509,275.3869,0,273.2755Z"/></g></g></g></svg>