<svg xmlns="http://www.w3.org/2000/svg" width="510.6717" height="510.6557" viewBox="0 0 510.6717 510.6557"><defs><style>.cls-1{fill:#222;}</style></defs><g id="Layer_2" data-name="Layer 2"><g id="Layer_1-2" data-name="Layer 1"><g id="blY5RI"><path class="cls-1" d="M44.9123,0H466.09a32.4493,32.4493,0,0,0,4.7678,1.2162A42.121,42.121,0,0,1,491.855,9.67c13.3859,9.92,18.6424,23.7661,18.7555,39.9046.1189,16.9638.028,33.9291.028,50.8938q0,179.8755-.02,359.751c-.003,11.336-2.1193,22.1183-9.1233,31.4858-10.2244,13.6746-24.3355,18.92-40.8479,18.9242q-116.757.0282-233.5139.0088-88.5655,0-177.1311-.0321c-20.0726-.03-35.947-7.84-44.8411-26.5547C2.5228,478.5005,1.6706,472.1006,0,466.09V44.9123a38.4508,38.4508,0,0,0,1.2177-4.6654C3.236,25.3009,10.7266,13.7661,23.9593,6.8135,30.3678,3.4464,37.8928,2.2042,44.9123,0ZM280.7672,218.0516c0-5.1606.01-9.7387-.0019-14.3167-.0288-11.5493-4.8332-16.4358-16.214-16.4453q-26.4435-.0221-52.8871,0c-11.2913.01-16.2986,5.0286-16.3009,16.4624q-.0243,117.4992.0013,234.9986c.0027,11.5305,5.1577,16.58,16.8556,16.5995q25.9444.043,51.8892-.0015c11.7055-.0221,16.65-4.9868,16.6535-16.6808q.018-60.1216-.012-120.2434a85.2731,85.2731,0,0,1,8.2815-37.1165c8.2445-17.3955,22.983-25.8041,42.8617-24.4221,17.5,1.2166,30.3815,11.69,34.96,30.4262a142.2221,142.2221,0,0,1,3.8176,31.999c.4272,40.0766.1518,80.1605.1718,120.2416.0055,10.8776,4.9084,15.7637,15.86,15.791q27.4413.0684,54.8828.0029c11.0684-.0226,16.4758-5.0066,16.4457-16.0156-.1318-48.2265-.1555-96.4571-.8809-144.6762-.2929-19.471-3.3543-38.7163-10.6615-57.0148-8.9949-22.525-23.78-39.491-47.0154-47.9562-19.9918-7.2834-40.6276-7.7982-61.4822-4.8782-22.7607,3.1869-41.6439,13.1005-55.3923,31.9318A10.4585,10.4585,0,0,1,280.7672,218.0516ZM73.5112,321.3964q0,59.1181.0144,118.2363c.0081,9.3831,5.3945,15.5045,14.4,15.6165q28.1823.3505,56.3716-.0075c8.0906-.0977,13.2732-5.1868,14.3356-13.2182a53.4208,53.4208,0,0,0,.2214-6.9722q.0147-113.7464.0067-227.4928c0-1.6628.037-3.3286-.0436-4.9881-.48-9.88-6.0036-15.2429-15.8728-15.2694q-26.1915-.07-52.3832-.0114c-12.0027.01-17.0445,4.9876-17.0485,16.8682Q73.493,262.7772,73.5112,321.3964Zm-12.3377-210.65c.0277,30.2471,24.8139,55.0848,54.9177,55.0318,30.1205-.0529,54.8864-24.9165,54.8807-55.0971a55.2912,55.2912,0,0,0-54.9506-54.9995C85.9,55.6656,61.1459,80.5172,61.1735,110.7463Z"/></g></g></g></svg>