<svg width="65" height="46" viewBox="0 0 65 46" fill="none" xmlns="http://www.w3.org/2000/svg">
<g clip-path="url(#clip0)">
<path d="M27.8 11.1C27.8 18.7 23 21 13.9 21C4.8 21.1 0 18.7 0 11.1V9.50002H9.1V10.8C9.1 13.4 10.9 14.4 13.8 14.4C16.7 14.4 18.6 13.3 18.6 10.8V0.400024H27.7V11.1H27.8Z" fill="#222222"/>
<path d="M61.2 20.7H55.3V18.5C53.2 20.6 49.5 21.5 45.8 21.5C35 21.5 30 18.1 30 10.8C29.9 3.4 35 0 45.7 0C56.5 0 60.9 3.1 61.1 8.3H50.3C50.3 8.2 50.2 8.1 50.1 7.9C49.6 7.2 48.4 6.4 45.7 6.4C41.9 6.4 39.9 8 39.9 10.9C39.9 13.9 41.9 15.5 46 15.5C49.5 15.5 51.2 14.2 51.3 14H46.6V9.7H61.2V20.7V20.7Z" fill="#222222"/>
<path d="M15.8 30.1C12.3 30.1 10.3 31.7 10.3 34.5C10.3 37.3 12.3 38.9 15.8 38.9C19 38.9 20.4 37.5 20.6 35.7H31.4C31.3 42.1 26.4 45.2 15.9 45.2C5.30005 45.2 0.300049 41.8 0.300049 34.5C0.300049 27.2 5.30005 23.8 15.9 23.8C26.4 23.8 31.3 26.9 31.4 32.9H20.6C20.4 31.6 18.9 30.1 15.8 30.1Z" fill="#222222"/>
<path d="M64.9001 34.5C64.9001 41.8 59.9 45.2 49.1 45.2C38.3 45.2 33.3 41.8 33.3 34.5C33.3 27.2 38.3 23.8 49.1 23.8C59.9 23.8 64.9001 27.2 64.9001 34.5ZM54.9001 34.5C54.9001 31.7 52.9 30.1 49.1 30.1C45.3 30.1 43.3 31.7 43.3 34.5C43.3 37.3 45.3 38.9 49.1 38.9C52.9 38.9 54.9001 37.3 54.9001 34.5Z" fill="#222222"/>
</g>
<defs>
<clipPath id="clip0">
<rect width="64.9" height="45.2" fill="white"/>
</clipPath>
</defs>
</svg>
